<?xml version="1.0" encoding="utf-8"?>
<svg id="master-artboard" viewBox="0 0 2000 2000" version="1.1" xmlns="http://www.w3.org/2000/svg" x="0px" y="0px" width="2000px" height="2000px" style="enable-background:new 0 0 2000 2000;">


<g id="Layer_1">
	<g>
		<path d="M 0 0 H 2000 V 2000 H 0 V 0 Z" class="st0" style="fill: rgb(255, 255, 255);"/>
		<g>
			<path class="st1" d="M382.2,933.6c-7.2-51.3-15-103-15.4-155c-0.2-26.6,1.5-53.6,5.8-80.1c-3.3,7.5-6.3,15.1-9.1,23&#10;&#9;&#9;&#9;&#9;c-29.8,82.5-29.7,172.2-40.5,258.3c-5.1,34.8-12.4,69.2-25.3,102c-7.7,16.8-17,32.8-27.9,47.8c-13.8,16.8-28.9,32.6-42.7,49.4&#10;&#9;&#9;&#9;&#9;c-20.3,24.9-37,49.8-47.6,80.3c-19.9,57.6-7.8,119.7,15.6,174c19.7,45.8,51.6,87.4,88.1,121.5c-13.2-21.8-23-45.7-27.7-70.6&#10;&#9;&#9;&#9;&#9;c-3.9-21.1-6.3-42.4-3.8-63.7c2.7-22.7,6.8-44,15.3-65.2c8.4-20.8,17.8-40.7,29.6-59.9c9.2-15.1,19.3-29.6,29.3-44.2&#10;&#9;&#9;&#9;&#9;c18.5-26.7,37-53.6,50.7-83.1c7.1-18.7,12.2-38.1,15.4-57.9c5.3-49.6,0.6-99.5-5.8-148.9C384.8,952.2,383.5,942.9,382.2,933.6z" style="fill: rgb(253, 228, 232);"/>
			<path class="st1" d="M1797.7,799.3c-40.9-60.1-99.9-108.7-171.8-126.6c-27.7-6.9-56.3-9.5-84.8-9.5c-5.2,0-10.4,0.1-15.6,0.3&#10;&#9;&#9;&#9;&#9;c18.4,2.9,36.4,7.6,53.6,14.5c19,7.7,37.5,16,54.6,27.4c16.3,10.9,32.1,23.2,46.4,36.7c25.5,24.2,47.7,53.5,64.1,84.6&#10;&#9;&#9;&#9;&#9;c77.3,145.9,42.7,322.2-31.7,461.9c-63.9,120-165.5,222.6-285.4,286.9c-57.7,30.9-118.7,52.9-181.6,68.4&#10;&#9;&#9;&#9;&#9;c27.4-0.1,54.7-0.4,82.1-0.7c83-1,167.1-9.6,239.8-52.7c62.2-36.8,110.7-92,149.7-151.9c40.1-61.8,71.1-130.2,97.4-198.7&#10;&#9;&#9;&#9;&#9;c29.1-75.7,49.1-157.2,46.3-238.7C1858.2,930.1,1838,858.5,1797.7,799.3z" style="fill: rgb(253, 228, 232);"/>
			<path class="st1" d="M579.7,1675.7c0.2,0,0.5,0,0.7,0c8,0,15.8-2,23-5.4c-24.2,0.2-48.4,0.7-72.6,1.8&#10;&#9;&#9;&#9;&#9;C547,1674.2,563.2,1675.4,579.7,1675.7z" style="fill: rgb(253, 228, 232);"/>
			<path class="st1" d="M283.4,1555.3c-0.1-0.1-0.3-0.2-0.4-0.4c8.8,14.6,19.1,28.3,30.2,40.8c30,33.7,73.3,60,117.8,68.5&#10;&#9;&#9;&#9;&#9;c5.5,1.1,11,1.7,16.4,1.8c9,5.5,19.3,9.2,29.7,9.2c1.1,0,2.3,0,3.4-0.1c16.8-1.3,33.5-2.4,50.3-3.1c-42.9-5.7-84.4-18-124.6-35.4&#10;&#9;&#9;&#9;&#9;C361,1617.2,319.3,1588.8,283.4,1555.3z" style="fill: rgb(253, 228, 232);"/>
			<path class="st1" d="M629,1646.5c-5.8,10.2-14.9,18.6-25.5,23.7c5.1,0,10.2,0,15.4,0c51.4,0,102.8,1.6,154.2,3.2&#10;&#9;&#9;&#9;&#9;c51.4,1.6,102.8,3.2,154.2,3.2c14.3,0,28.7-0.1,43-0.4c92.2-1.8,185.5-10.4,275.2-32.4c-57.2,0.3-114.5,0.3-171.7,0.6&#10;&#9;&#9;&#9;&#9;C925.5,1645.1,777.3,1645.8,629,1646.5z" style="fill: rgb(253, 228, 232);"/>
			<path class="st1" d="M1466.1,659.3c-37.2,0.2-74.1,5.3-111.3,6.3c-4,0.1-8,0.2-12,0.2c-10.7,0-21.4-0.4-32.1-1.5&#10;&#9;&#9;&#9;&#9;c-12.3-2.2-24.4-5.4-36.1-9.7c-13-6.2-25.4-13.7-37.1-22.2c-58.2-47.8-98.4-113.5-151.2-166.8c-32.2-32.6-69.9-60.9-111.3-80.6&#10;&#9;&#9;&#9;&#9;c-23.6-11.2-48.1-21.1-73.3-28.1c-25.1-7-51-10.9-76.9-13.6c-13.4-1.4-27-2.1-40.6-2.1c-79.5,0-160.3,24-225.5,68.8&#10;&#9;&#9;&#9;&#9;c-79.9,54.9-139.5,133.3-170.7,225.1c-7,20.6-12.1,41.8-15.5,63.4c14.8-34,33.9-64.8,58.3-93.7c26.3-31.2,59-57.7,93.7-79.1&#10;&#9;&#9;&#9;&#9;c71.4-44,155.8-65.8,239.6-65.8c2.2,0,4.3,0,6.5,0c96.7,1.3,191,29.3,276.9,72.3c72.8,36.5,138.3,86.1,213,118.9&#10;&#9;&#9;&#9;&#9;c24.3,9.7,49.3,17.2,75.2,21.4c12.4,1.3,24.8,1.9,37.3,1.9c3.5,0,7,0,10.5-0.1c38.9-1,77.5-6.6,116.3-9.5&#10;&#9;&#9;&#9;&#9;c8.6-0.7,17.2-1.1,25.9-1.4c-18.8-3-37.9-4.2-56.8-4.2C1467.9,659.3,1467,659.3,1466.1,659.3z" style="fill: rgb(253, 228, 232);"/>
			<path class="st2" d="M1680.1,742c-14.3-13.5-30-25.8-46.4-36.7c-17.1-11.4-35.6-19.7-54.6-27.4c-17.1-6.9-35.2-11.6-53.6-14.5&#10;&#9;&#9;&#9;&#9;c-8.6,0.3-17.3,0.8-25.9,1.4c-38.8,2.9-77.4,8.6-116.3,9.5c-3.5,0.1-7,0.1-10.5,0.1c-12.5,0-24.9-0.6-37.3-1.9&#10;&#9;&#9;&#9;&#9;c-25.8-4.2-50.9-11.7-75.2-21.4c-74.7-32.8-140.2-82.4-213-118.9c-85.9-43-180.2-71-276.9-72.3c-2.2,0-4.3,0-6.5,0&#10;&#9;&#9;&#9;&#9;c-83.8,0-168.2,21.7-239.6,65.8c-34.7,21.4-67.4,47.9-93.7,79.1c-24.3,28.9-43.5,59.7-58.3,93.7c-4.2,26.5-6,53.5-5.8,80.1&#10;&#9;&#9;&#9;&#9;c0.4,52,8.2,103.6,15.4,155c1.3,9.3,2.6,18.6,3.9,27.8c6.4,49.3,11.1,99.3,5.8,148.9c-3.3,19.8-8.3,39.2-15.4,57.9&#10;&#9;&#9;&#9;&#9;c-13.7,29.5-32.2,56.4-50.7,83.1c-10,14.5-20.1,29.1-29.3,44.2c-11.7,19.2-21.1,39.1-29.6,59.9c-8.6,21.2-12.7,42.6-15.3,65.2&#10;&#9;&#9;&#9;&#9;c-2.5,21.3-0.1,42.6,3.8,63.7c4.7,24.9,14.5,48.7,27.7,70.6c0.1,0.1,0.3,0.2,0.4,0.4c35.9,33.5,77.6,61.9,122.8,81.4&#10;&#9;&#9;&#9;&#9;c40.2,17.4,81.7,29.6,124.6,35.4c24.2-1.1,48.4-1.6,72.6-1.8c10.6-5.1,19.7-13.6,25.5-23.7c148.3-0.7,296.5-1.5,444.8-2.2&#10;&#9;&#9;&#9;&#9;c57.2-0.3,114.5-0.3,171.7-0.6c62.9-15.4,123.9-37.5,181.6-68.4c119.9-64.3,221.5-166.9,285.4-286.9&#10;&#9;&#9;&#9;&#9;c74.4-139.6,109-315.9,31.7-461.9C1727.7,795.5,1705.6,766.2,1680.1,742z M1633.6,1147.3c-3.3,30.3-7.9,60.5-15.5,90&#10;&#9;&#9;&#9;&#9;c-7.5,29.4-18.2,57.5-30,85.4c-21.3,50-51.7,96.4-89.2,135.9c-39,41-87.4,73.7-139.2,96.3c-29.7,13-59.8,24.4-91,33.4&#10;&#9;&#9;&#9;&#9;c-26.5,7.7-53.5,13.9-80.6,19.3c-64.7,13-130.4,21.6-196.1,27.5c-109,9.6-218.6,10.5-328,10.5c-12,0-24.1,0-36.2,0&#10;&#9;&#9;&#9;&#9;c-7.6,0-14.9-1.3-21.7-3.7c-11.1,6.8-24.8,10.6-36.9,10.6c-0.7,0-1.5,0-2.2,0c-8.7,0-16.8-2-24.4-6c-8.6-2.8-16-7.5-22.2-14.3&#10;&#9;&#9;&#9;&#9;c-12.7-10.3-24.3-22-34.5-34.9c-13.4-17-26.1-34-35.9-53.4c-8.9-17.6-16.7-36.1-22.5-54.9c-6-19.3-8.8-38.9-11.4-58.9&#10;&#9;&#9;&#9;&#9;c-4.4-33.9-1.5-69,6.3-102.2c8.5-36.3,25.9-70.5,44.6-102.5c15-25.6,31.1-50.6,43.6-77.5c5-13.4,8.8-27.2,11.3-41.3&#10;&#9;&#9;&#9;&#9;c0.7-7,1.1-14,1.4-21.1c1.3-41-4.1-81.9-5.4-122.9c-1.3-40.8,2.7-82.1,12.9-121.7c5.6-21.5,13.7-41.8,22.4-62.1&#10;&#9;&#9;&#9;&#9;c6.4-15,13.8-29.5,22.3-43.4c11.4-18.5,24.7-36,39-52.4c10.7-12.4,22.5-23.8,35.3-34.1c16.7-13.4,33.8-26.4,52.7-36.4&#10;&#9;&#9;&#9;&#9;c18.4-9.8,37.9-17.9,57.8-24c20.3-6.1,41.3-9.1,62.3-11.4c9.1-1,18.3-1.5,27.5-1.5c6.3,0,12.5,0.2,18.8,0.7&#10;&#9;&#9;&#9;&#9;c20.8,1.6,42,4.5,62.2,9.9c19.7,5.3,38.9,13.2,57.1,22.2c18.6,9.2,34.9,21.4,51,34.4c17,13.7,30.2,30.3,43.4,47.6&#10;&#9;&#9;&#9;&#9;c42,55.4,57.4,125.5,97.5,182c6.8,8.1,14.1,15.7,22.1,22.6c4.8,3.2,9.7,6.2,14.9,8.8c4.6,1.6,9.3,2.8,14.1,3.8&#10;&#9;&#9;&#9;&#9;c3.1,0.2,6.2,0.3,9.4,0.3c5,0,10-0.2,15-0.7c8-1.4,15.9-3.2,23.7-5.2c22.4-5.8,44.2-13.4,66.4-19.8c26.8-7.8,54.4-13.6,82.3-15&#10;&#9;&#9;&#9;&#9;c2.9-0.1,5.9-0.2,8.8-0.2c30.5,0,60.3,7.8,87.6,21.5c15,7.5,28.9,18.5,41.1,29.8c12.4,11.5,23.1,25.5,32.4,39.6&#10;&#9;&#9;&#9;&#9;c9.5,14.4,16.2,30.5,22.4,46.5c5,12.8,8.3,26.3,10.5,39.9c3.1,19.8,5.4,39.5,5.4,59.5C1636.2,1118.4,1635.2,1132.9,1633.6,1147.3&#10;&#9;&#9;&#9;&#9;z" style="fill: rgb(251, 207, 214);"/>
			<path class="st3" d="M1620.4,1004.6c-6.2-16-12.9-32.1-22.4-46.5c-9.3-14.1-19.9-28.1-32.4-39.6c-12.2-11.3-26.1-22.3-41.1-29.8&#10;&#9;&#9;&#9;&#9;c-27.3-13.7-57-21.5-87.6-21.5c-2.9,0-5.8,0.1-8.8,0.2c-27.9,1.4-55.6,7.1-82.3,15c-22.2,6.5-44,14.1-66.4,19.8&#10;&#9;&#9;&#9;&#9;c-7.9,2-15.8,3.8-23.7,5.2c-5,0.4-10,0.7-15,0.7c-3.1,0-6.2-0.1-9.4-0.3c-4.8-1-9.5-2.3-14.1-3.8c-5.1-2.6-10.1-5.6-14.9-8.8&#10;&#9;&#9;&#9;&#9;c-8-6.9-15.3-14.5-22.1-22.6c-40.1-56.4-55.5-126.6-97.5-182c-13.2-17.3-26.4-33.9-43.4-47.6c-16.1-13-32.5-25.2-51-34.4&#10;&#9;&#9;&#9;&#9;c-18.2-9-37.4-16.9-57.1-22.2c-20.2-5.4-41.4-8.3-62.2-9.9c-6.3-0.5-12.5-0.7-18.8-0.7c-9.2,0-18.4,0.5-27.5,1.5&#10;&#9;&#9;&#9;&#9;c-21,2.3-42,5.3-62.3,11.4c-19.9,6-39.5,14.2-57.8,24c-19,10.1-36,23-52.7,36.4c-12.8,10.2-24.6,21.7-35.3,34.1&#10;&#9;&#9;&#9;&#9;c-14.2,16.4-27.6,33.9-39,52.4c-8.6,13.9-15.9,28.4-22.3,43.4c-8.7,20.4-16.8,40.7-22.4,62.1c-10.3,39.5-14.2,80.9-12.9,121.7&#10;&#9;&#9;&#9;&#9;c1.3,41,6.7,81.8,5.4,122.9c-0.2,7.1-0.7,14.1-1.4,21.1c-2.5,14.1-6.2,27.9-11.3,41.3c-12.4,26.9-28.6,52-43.6,77.5&#10;&#9;&#9;&#9;&#9;c-18.7,32-36.1,66.2-44.6,102.5c-7.8,33.2-10.7,68.3-6.3,102.2c2.6,20,5.4,39.6,11.4,58.9c5.8,18.9,13.6,37.3,22.5,54.9&#10;&#9;&#9;&#9;&#9;c9.8,19.4,22.5,36.4,35.9,53.4c10.2,12.9,21.7,24.6,34.5,34.9c6.2,6.7,13.7,11.5,22.2,14.3c7.6,4,15.7,6,24.4,6&#10;&#9;&#9;&#9;&#9;c0.7,0,1.4,0,2.2,0c12,0,25.7-3.8,36.9-10.6c6.9,2.4,14.1,3.7,21.7,3.7c12,0,24.1,0,36.2,0c109.4,0,218.9-0.9,328-10.5&#10;&#9;&#9;&#9;&#9;c65.7-5.8,131.4-14.4,196.1-27.5c27.1-5.4,54-11.7,80.6-19.3c31.2-9,61.2-20.5,91-33.4c51.8-22.6,100.2-55.2,139.2-96.3&#10;&#9;&#9;&#9;&#9;c37.5-39.4,67.9-85.8,89.2-135.9c11.9-27.9,22.5-55.9,30-85.4c7.5-29.6,12.1-59.8,15.5-90c1.6-14.4,2.6-28.9,2.6-43.3&#10;&#9;&#9;&#9;&#9;c0-20-2.3-39.7-5.4-59.5C1628.8,1030.9,1625.4,1017.4,1620.4,1004.6z" style="fill: rgb(249, 191, 200);"/>
		</g>
		<g>
			<g>
				<path class="st4" d="M784.6,306.3H255.1c-16.9,0-30.6,13.7-30.6,30.6v538c0,16.9,13.7,30.6,30.6,30.6h529.5&#10;&#9;&#9;&#9;&#9;&#9;c16.9,0,30.6-13.7,30.6-30.6v-538C815.2,320,801.5,306.3,784.6,306.3z" style="fill: rgb(237, 232, 233);"/>
				<path d="M 239 473.600006 H 801.200012 V 835.200012 H 239 V 473.600006 Z" class="st5" style="fill: rgb(247, 247, 247);"/>
				<path d="M 239 351.600006 H 801.200012 V 457.400009 H 239 V 351.600006 Z" class="st6" style="fill: rgb(226, 220, 222);"/>
				<path d="M 464.799988 321.399994 H 574.799988 V 328.999994 H 464.799988 V 321.399994 Z" class="st5" style="fill: rgb(247, 247, 247);"/>
				<g>
					<path d="M 299.899994 372.799988 H 735.5 V 377.799988 H 299.899994 V 372.799988 Z" class="st7" style="fill: rgb(211, 201, 205);"/>
					<path d="M 286.5 390.100006 H 753.700012 V 395.100006 H 286.5 V 390.100006 Z" class="st7" style="fill: rgb(211, 201, 205);"/>
					<path d="M 294.200012 405.200012 H 746.5 V 410.200012 H 294.200012 V 405.200012 Z" class="st7" style="fill: rgb(211, 201, 205);"/>
					<path d="M 318.799988 421.799988 H 722 V 426.799988 H 318.799988 V 421.799988 Z" class="st7" style="fill: rgb(211, 201, 205);"/>
				</g>
				<path d="M 353.299995 551.900024 A 37.400002 37.400002 0 0 1 315.899994 589.300026 A 37.400002 37.400002 0 0 1 278.499992 551.900024 A 37.400002 37.400002 0 0 1 315.899994 514.500023 A 37.400002 37.400002 0 0 1 353.299995 551.900024 Z" class="st6" style="fill: rgb(226, 220, 222);"/>
				<path d="M 353.299995 651.900024 A 37.400002 37.400002 0 0 1 315.899994 689.300026 A 37.400002 37.400002 0 0 1 278.499992 651.900024 A 37.400002 37.400002 0 0 1 315.899994 614.500023 A 37.400002 37.400002 0 0 1 353.299995 651.900024 Z" class="st6" style="fill: rgb(226, 220, 222);"/>
				<g>
					<path d="M 371.899994 523.900024 H 725.699982 V 530.500024 H 371.899994 V 523.900024 Z" class="st4" style="fill: rgb(237, 232, 233);"/>
					<path d="M 371.899994 540.400024 H 725.699982 V 547.000024 H 371.899994 V 540.400024 Z" class="st4" style="fill: rgb(237, 232, 233);"/>
					<path d="M 371.899994 556.900024 H 725.699982 V 563.500024 H 371.899994 V 556.900024 Z" class="st4" style="fill: rgb(237, 232, 233);"/>
					<path d="M 371.899994 573.299988 H 725.699982 V 579.899988 H 371.899994 V 573.299988 Z" class="st4" style="fill: rgb(237, 232, 233);"/>
				</g>
				<g>
					<path d="M 371.899994 623.900024 H 725.699982 V 630.500024 H 371.899994 V 623.900024 Z" class="st4" style="fill: rgb(237, 232, 233);"/>
					<path d="M 371.899994 640.299988 H 725.699982 V 646.899988 H 371.899994 V 640.299988 Z" class="st4" style="fill: rgb(237, 232, 233);"/>
					<path d="M 371.899994 656.799988 H 725.699982 V 663.399988 H 371.899994 V 656.799988 Z" class="st4" style="fill: rgb(237, 232, 233);"/>
					<path d="M 371.899994 673.299988 H 725.699982 V 679.899988 H 371.899994 V 673.299988 Z" class="st4" style="fill: rgb(237, 232, 233);"/>
				</g>
				<path d="M 353.299995 757.599976 A 37.400002 37.400002 0 0 1 315.899994 794.999977 A 37.400002 37.400002 0 0 1 278.499992 757.599976 A 37.400002 37.400002 0 0 1 315.899994 720.199974 A 37.400002 37.400002 0 0 1 353.299995 757.599976 Z" class="st6" style="fill: rgb(226, 220, 222);"/>
				<g>
					<path d="M 371.899994 729.599976 H 725.699982 V 736.199975 H 371.899994 V 729.599976 Z" class="st4" style="fill: rgb(237, 232, 233);"/>
					<path d="M 371.899994 746 H 725.699982 V 752.6 H 371.899994 V 746 Z" class="st4" style="fill: rgb(237, 232, 233);"/>
					<path d="M 371.899994 762.5 H 725.699982 V 769.1 H 371.899994 V 762.5 Z" class="st4" style="fill: rgb(237, 232, 233);"/>
					<path d="M 371.899994 779 H 725.699982 V 785.6 H 371.899994 V 779 Z" class="st4" style="fill: rgb(237, 232, 233);"/>
				</g>
			</g>
			<g>
				<path class="st6" d="M1247.4,756.1V1247h156.1V725.5H1278C1261.1,725.5,1247.4,739.2,1247.4,756.1z" style="fill: rgb(226, 220, 222);"/>
				<path class="st4" d="M1834.7,725.5h-431.3V1247h431.3c16.9,0,30.6-13.7,30.6-30.6V756.1C1865.3,739.2,1851.6,725.5,1834.7,725.5&#10;&#9;&#9;&#9;&#9;&#9;z" style="fill: rgb(237, 232, 233);"/>
				<path d="M 1443.400024 898.400024 H 1825.400024 V 1202.600037 H 1443.400024 V 898.400024 Z" class="st5" style="fill: rgb(247, 247, 247);"/>
				<path d="M 1443.400024 762.299988 H 1825.400024 V 860.299988 H 1443.400024 V 762.299988 Z" class="st6" style="fill: rgb(226, 220, 222);"/>
				<path d="M 1528.299976 811.299988 A 29.700001 29.700001 0 0 1 1498.599976 840.999989 A 29.700001 29.700001 0 0 1 1468.899975 811.299988 A 29.700001 29.700001 0 0 1 1498.599976 781.599987 A 29.700001 29.700001 0 0 1 1528.299976 811.299988 Z" class="st5" style="fill: rgb(247, 247, 247);"/>
				
					<path d="M 1355.100025 811.299988 A 29.700001 29.700001 0 0 1 1325.400024 840.999989 A 29.700001 29.700001 0 0 1 1295.700024 811.299988 A 29.700001 29.700001 0 0 1 1325.400024 781.599987 A 29.700001 29.700001 0 0 1 1355.100025 811.299988 Z" transform="matrix(0.982 -0.1891 0.1891 0.982 -129.5142 265.2829)" class="st5" style="fill: rgb(247, 247, 247);"/>
				
					<path d="M 1355.100025 928.799988 A 29.700001 29.700001 0 0 1 1325.400024 958.499989 A 29.700001 29.700001 0 0 1 1295.700024 928.799988 A 29.700001 29.700001 0 0 1 1325.400024 899.099987 A 29.700001 29.700001 0 0 1 1355.100025 928.799988 Z" transform="matrix(0.982 -0.1891 0.1891 0.982 -151.7294 267.4026)" class="st5" style="fill: rgb(247, 247, 247);"/>
				
					<path d="M 1355.100025 1046.300049 A 29.700001 29.700001 0 0 1 1325.400024 1076.00005 A 29.700001 29.700001 0 0 1 1295.700024 1046.300049 A 29.700001 29.700001 0 0 1 1325.400024 1016.600048 A 29.700001 29.700001 0 0 1 1355.100025 1046.300049 Z" transform="matrix(0.7071 -0.7071 0.7071 0.7071 -351.632 1243.6516)" class="st5" style="fill: rgb(247, 247, 247);"/>
				<path d="M 1551 790.299988 H 1731.699997 V 794.299988 H 1551 V 790.299988 Z" class="st5" style="fill: rgb(247, 247, 247);"/>
				<path d="M 1551 807.299988 H 1806.5 V 811.299988 H 1551 V 807.299988 Z" class="st5" style="fill: rgb(247, 247, 247);"/>
				<path d="M 1551 824.299988 H 1806.5 V 828.299988 H 1551 V 824.299988 Z" class="st5" style="fill: rgb(247, 247, 247);"/>
				<g>
					<path d="M 1501.300049 930.5 H 1659.900055 V 934.5 H 1501.300049 V 930.5 Z" class="st6" style="fill: rgb(226, 220, 222);"/>
					<path d="M 1501.300049 941.200012 H 1756.800049 V 945.200012 H 1501.300049 V 941.200012 Z" class="st6" style="fill: rgb(226, 220, 222);"/>
					<path d="M 1466 928.099976 H 1487.5 V 949.599976 H 1466 V 928.099976 Z" class="st6" style="fill: rgb(226, 220, 222);"/>
				</g>
				<g>
					<path d="M 1501.300049 981 H 1659.900055 V 985 H 1501.300049 V 981 Z" class="st6" style="fill: rgb(226, 220, 222);"/>
					<path d="M 1501.300049 991.700012 H 1756.800049 V 995.700012 H 1501.300049 V 991.700012 Z" class="st6" style="fill: rgb(226, 220, 222);"/>
					<path d="M 1466 978.599976 H 1487.5 V 1000.099976 H 1466 V 978.599976 Z" class="st6" style="fill: rgb(226, 220, 222);"/>
				</g>
				<g>
					<path d="M 1501.300049 1031.5 H 1659.900055 V 1035.5 H 1501.300049 V 1031.5 Z" class="st6" style="fill: rgb(226, 220, 222);"/>
					<path d="M 1501.300049 1042.099976 H 1756.800049 V 1046.099976 H 1501.300049 V 1042.099976 Z" class="st6" style="fill: rgb(226, 220, 222);"/>
					<path d="M 1466 1029.099976 H 1487.5 V 1050.599976 H 1466 V 1029.099976 Z" class="st6" style="fill: rgb(226, 220, 222);"/>
				</g>
				<g>
					<path d="M 1501.300049 1081.900024 H 1659.900055 V 1085.900024 H 1501.300049 V 1081.900024 Z" class="st6" style="fill: rgb(226, 220, 222);"/>
					<path d="M 1501.300049 1092.599976 H 1756.800049 V 1096.599976 H 1501.300049 V 1092.599976 Z" class="st6" style="fill: rgb(226, 220, 222);"/>
					<path d="M 1466 1079.5 H 1487.5 V 1101 H 1466 V 1079.5 Z" class="st6" style="fill: rgb(226, 220, 222);"/>
				</g>
				<g>
					<path d="M 1501.300049 1132.400024 H 1659.900055 V 1136.400024 H 1501.300049 V 1132.400024 Z" class="st6" style="fill: rgb(226, 220, 222);"/>
					<path d="M 1501.300049 1143.099976 H 1756.800049 V 1147.099976 H 1501.300049 V 1143.099976 Z" class="st6" style="fill: rgb(226, 220, 222);"/>
					<path d="M 1466 1130 H 1487.5 V 1151.5 H 1466 V 1130 Z" class="st6" style="fill: rgb(226, 220, 222);"/>
				</g>
			</g>
			<g>
				<path class="st8" d="M1337.2,592.3h-165.9c-16.8,0-30.5,13.7-30.5,30.5V836c0,16.8,13.7,30.5,30.5,30.5h165.9&#10;&#9;&#9;&#9;&#9;&#9;c16.8,0,30.5-13.7,30.5-30.5V622.8C1367.7,606,1354.1,592.3,1337.2,592.3z" style="fill: rgb(106, 125, 183);"/>
				<g>
					<path d="M 1303.800049 690.700012 A 49.5 49.5 0 0 1 1254.300049 740.200012 A 49.5 49.5 0 0 1 1204.800049 690.700012 A 49.5 49.5 0 0 1 1254.300049 641.200012 A 49.5 49.5 0 0 1 1303.800049 690.700012 Z" class="st5" style="fill: rgb(247, 247, 247);"/>
					<path d="M 1197.300049 772.200012 H 1311.300049 V 780.500012 H 1197.300049 V 772.200012 Z" class="st5" style="fill: rgb(247, 247, 247);"/>
					<path d="M 1172.599976 797.200012 H 1335.899979 V 805.500012 H 1172.599976 V 797.200012 Z" class="st5" style="fill: rgb(247, 247, 247);"/>
				</g>
			</g>
			
			<g>
				<path class="st10" d="M1019.9,410.3H776c-6.9,0-12.5,5.6-12.5,12.5v89.5c0,6.9,5.6,12.5,12.5,12.5h243.9&#10;&#9;&#9;&#9;&#9;&#9;c6.9,0,12.5-5.6,12.5-12.5v-89.5C1032.4,415.9,1026.8,410.3,1019.9,410.3z" style="fill: rgb(191, 232, 247);"/>
				<g>
					<path d="M 790.5 433.5 H 811.799999 V 454.799999 H 790.5 V 433.5 Z" class="st5" style="fill: rgb(247, 247, 247);"/>
					<path d="M 831.400024 437.5 H 1005.400024 V 441.8 H 831.400024 V 437.5 Z" class="st5" style="fill: rgb(247, 247, 247);"/>
					<path d="M 831.400024 446.5 H 1005.400024 V 450.8 H 831.400024 V 446.5 Z" class="st5" style="fill: rgb(247, 247, 247);"/>
				</g>
				<g>
					<path d="M 790.5 477.899994 H 811.799999 V 499.199993 H 790.5 V 477.899994 Z" class="st5" style="fill: rgb(247, 247, 247);"/>
					<path d="M 831.400024 481.899994 H 1005.400024 V 486.199994 H 831.400024 V 481.899994 Z" class="st5" style="fill: rgb(247, 247, 247);"/>
					<path d="M 831.400024 490.899994 H 1005.400024 V 495.199994 H 831.400024 V 490.899994 Z" class="st5" style="fill: rgb(247, 247, 247);"/>
				</g>
			</g>
			
		</g>
		<g>
			<path class="st11" d="M984.1,830c-18.3-41-48.8-78.9-88.8-100.3c-18.2-9.8-37.9-15.8-57.9-17.9c-0.6-1.7-1.4-3.4-2.4-5&#10;&#9;&#9;&#9;&#9;c-8.4-13-25.1-18.1-38.8-10.2c-18.5,10.7-35.6,23.3-51.3,37.4c-4.3,3-8.4,6.4-12.4,9.8c-2.5,2.2-4.4,4.9-5.8,7.9&#10;&#9;&#9;&#9;&#9;c-41.1,43.4-70.3,98.1-86.7,155.8c-13.6,47.7-19,98-18.6,147.6c0.2,26.8,3.2,52.5,20.4,74c15.1,18.8,40,29.5,63.3,33.4&#10;&#9;&#9;&#9;&#9;c26.3,4.4,51.6,2.5,77.8-1.5c11.6-1.8,23.2-4,34.7-6.1c5.6-1,11.1-2,16.7-2.9c2.3-0.4,4.6-0.7,7-1.1c-0.4,0.1,5.2-0.6,6.4-0.8&#10;&#9;&#9;&#9;&#9;c25.7-2.7,51.6,0.9,77.1-3.7c22.8-4.1,44.3-17.5,59.1-35.1c32.3-38.4,40.4-89.2,35.8-137.9C1015.3,924.5,1004.3,875.1,984.1,830z&#10;&#9;&#9;&#9;&#9;" style="fill: rgb(34, 58, 119);"/>
			<linearGradient id="SVGID_1_" gradientUnits="userSpaceOnUse" x1="828.6401" y1="1080.933" x2="828.6401" y2="1007.4691">
				<stop offset="0" style="stop-color:#FDB39A"/>
				<stop offset="1" style="stop-color:#E99274"/>
			</linearGradient>
			<path class="st12" d="M857.7,913.9c-13.5-8.8-33.4-12.5-48.6-7.1c-15.3,5.5-30,16-37.7,32.2c-8.3,17.4-9.7,34.6-6.4,53.9&#10;&#9;&#9;&#9;&#9;c0.4,2.6,0.9,5.2,1.3,7.9c2,22.3,1.9,44.6-0.5,66.9c-1.7,16.6,8.3,38.2,18.5,49.5c10.9,12.1,28.9,21.3,44.6,20.5&#10;&#9;&#9;&#9;&#9;c16.3-0.8,33.2-6.8,44.6-20.5c3.3-4.7,6.6-9.4,9.9-14.2c5.7-10.9,8.6-22.7,8.6-35.3c3.9-37.5,1-74.9-5.3-111.9&#10;&#9;&#9;&#9;&#9;C883.9,939.3,870.3,922.1,857.7,913.9z" style="fill: url('#SVGID_1_');"/>
			<linearGradient id="SVGID_2_" gradientUnits="userSpaceOnUse" x1="828.6401" y1="919.044" x2="828.6401" y2="657.0808">
				<stop offset="0" style="stop-color:#FDB39A"/>
				<stop offset="1" style="stop-color:#E99274"/>
			</linearGradient>
			<path class="st13" d="M955.5,754.9c-15.8-89.7-126.9-87.4-126.9-87.4s-111.1-2.3-126.9,87.4c-13.4,76.1,10.9,69.7,5.5,120.3&#10;&#9;&#9;&#9;&#9;c-5.1,47.4,55.9,150.3,121.4,150.3S955.2,922.6,950,875.2C944.6,824.6,969,831,955.5,754.9z" style="fill: url('#SVGID_2_');"/>
			<linearGradient id="SVGID_3_" gradientUnits="userSpaceOnUse" x1="627.1133" y1="1111.4812" x2="861.5257" y2="1326.1023">
				<stop offset="0" style="stop-color:#BFE8F7"/>
				<stop offset="1" style="stop-color:#93C6E5"/>
			</linearGradient>
			<path class="st14" d="M1005.7,1045c-40.9-12.1-73.8-4-100.2,3.1c-94.4,54.6-148.9-7.7-148.9-7.7c-31.3-12.5-56.4-46.4-122.8-8.5&#10;&#9;&#9;&#9;&#9;c-71.8,41-167.9,349.3-167.9,349.3l86.3,47.5l80.2-194.3v33.6c1.2,26.5,5.5,62.4,19.6,83.4c24.3,36.2,11.1,206.4,11.1,206.4&#10;&#9;&#9;&#9;&#9;h168.2h146.3c0,0-29.5-158.3-8.1-202.6c13-27,18.8-51.9,21.2-71.8V1238l6.5,246.9l97.3-19&#10;&#9;&#9;&#9;&#9;C1094.5,1465.8,1084.4,1068.2,1005.7,1045z" style="fill: url('#SVGID_3_');"/>
			<linearGradient id="SVGID_4_" gradientUnits="userSpaceOnUse" x1="795.4907" y1="1544.5344" x2="833.2253" y2="1544.5344">
				<stop offset="0" style="stop-color:#EDE8E9"/>
				<stop offset="1" style="stop-color:#E0DEDE"/>
			</linearGradient>
			<path d="M 663.099976 1528.5 H 1347.899963 V 1560.599998 H 663.099976 V 1528.5 Z" class="st15" style="fill: url('#SVGID_4_');"/>
			<path class="st16" d="M1732.9,1563.5H289.9c-11.8,0-21.3,9.5-21.3,21.3v24.6c0,11.8,9.5,21.3,21.3,21.3h1443.1&#10;&#9;&#9;&#9;&#9;c11.8,0,21.3-9.5,21.3-21.3v-24.6C1754.2,1573,1744.7,1563.5,1732.9,1563.5z" style="fill: rgb(55, 72, 145);"/>
			<linearGradient id="SVGID_5_" gradientUnits="userSpaceOnUse" x1="1011.388" y1="1674.75" x2="1011.388" y2="1643.8944">
				<stop offset="0" style="stop-color:#374891"/>
				<stop offset="1" style="stop-color:#223A77"/>
			</linearGradient>
			<path d="M 371.100006 1630.599976 H 1651.699982 V 1681.099976 H 371.100006 V 1630.599976 Z" class="st17" style="fill: url('#SVGID_5_');"/>
			<g>
				<g>
					<path class="st18" d="M519.7,1230.1c-4,10-7.8,20-11.5,29.7c30.7,17,62.8,31.6,95.7,43.9l12-29.1c-2.5-0.9-5-1.8-7.5-2.8&#10;&#9;&#9;&#9;&#9;&#9;&#9;C577.8,1260.1,548.2,1246.1,519.7,1230.1z" style="fill: rgb(235, 253, 255);"/>
					<path class="st18" d="M633.2,1280.7c0.9,11.2,2.4,23.3,5,34.8c99.4,31.6,205.5,42.3,309,30.3c9.4-1.1,18.8-2.4,28.2-3.8&#10;&#9;&#9;&#9;&#9;&#9;&#9;c4.9-11.9,8.4-23.2,10.9-33.8C868.8,1329,746.4,1319.2,633.2,1280.7z" style="fill: rgb(235, 253, 255);"/>
					<path class="st18" d="M1026.7,1345.3c-10.8,4.7-21.8,9.1-32.8,13.1l0.9,32.8c16.2-5.6,32.1-11.9,47.9-18.8&#10;&#9;&#9;&#9;&#9;&#9;&#9;c7.8-3.4,9.6-14.8,5.7-21.6C1043.6,1343,1034.6,1341.9,1026.7,1345.3z" style="fill: rgb(235, 253, 255);"/>
					<path class="st18" d="M882.1,1181.9c-41.6-2-82.6-9.6-123.2-18.1c-39.2-8.2-79.1-17.3-115.4-34.7c-21.2-10.1-41.3-22.9-58.4-39&#10;&#9;&#9;&#9;&#9;&#9;&#9;c-5.2,8.8-10.4,18.3-15.6,28.3c45.1,39.2,105.6,59.1,163.9,72.1c84.7,18.8,174.8,35.2,260.3,12.1c25.2-6.8,49.5-17,71.6-30.8&#10;&#9;&#9;&#9;&#9;&#9;&#9;c-2.3-11.4-4.8-22.4-7.4-32.8C1007.7,1174.5,943.1,1184.8,882.1,1181.9z" style="fill: rgb(235, 253, 255);"/>
					<path class="st18" d="M876.2,1251c-44.7-1.7-89-8.6-132.8-17.4c-37.8-7.6-75.5-16.9-111.7-30.4c-29.1-10.9-57.2-25-82.5-43.1&#10;&#9;&#9;&#9;&#9;&#9;&#9;c-4.4,9.6-8.7,19.4-12.9,29.2c29.3,20,61.6,35.2,95.2,47.1l0.8-2v2.3c29.7,10.5,60.5,18.4,91.2,24.9&#10;&#9;&#9;&#9;&#9;&#9;&#9;c87.3,18.4,178.8,30.5,267.1,12.1v-32.2C953.2,1249.9,914.2,1252.4,876.2,1251z" style="fill: rgb(235, 253, 255);"/>
					<path class="st18" d="M698,1079.9c-25.5-11.2-49.3-25.6-69.1-44.9c-7.2,5.2-14.6,12.9-22.2,22.6&#10;&#9;&#9;&#9;&#9;&#9;&#9;c41.9,41.6,102.1,64.8,158.9,76.1c66.1,13.1,135.1,10.5,200-7.7c27.1-7.6,53.5-18,78.5-30.9c-4.3-11-8.9-20.6-13.9-28.4&#10;&#9;&#9;&#9;&#9;&#9;&#9;C928.8,1119,803,1126.2,698,1079.9z" style="fill: rgb(235, 253, 255);"/>
					<path class="st18" d="M660.5,1375.1c2,9.6,3.4,20.9,4.4,33.1c77.6,18,158.9,20.6,238.4,6.9c19.8-3.4,39.3-7.9,58.6-13.4&#10;&#9;&#9;&#9;&#9;&#9;&#9;c0.3-12.7,1.4-24.3,3.5-33.7C866.6,1398,760.3,1400.3,660.5,1375.1z" style="fill: rgb(235, 253, 255);"/>
					<path class="st18" d="M1075.2,1286.3c-27.1,8.7-54.7,15.6-82.6,20.8l0.8,31.9c30.5-5.5,60.6-12.8,90.2-22.3&#10;&#9;&#9;&#9;&#9;&#9;&#9;c0.6-0.2,1.1-0.4,1.6-0.6c-0.9-10-2-20.2-3.1-30.5C1080,1285.3,1077.7,1285.5,1075.2,1286.3z" style="fill: rgb(235, 253, 255);"/>
					<path class="st18" d="M990.8,1241.4l0.8,32.1c1.9-0.4,3.8-0.8,5.7-1.2c27.8-6.3,54.5-15.8,79.7-28.6&#10;&#9;&#9;&#9;&#9;&#9;&#9;c-1.5-10.9-3.1-21.8-4.8-32.6C1046.8,1225.2,1019.3,1235,990.8,1241.4z" style="fill: rgb(235, 253, 255);"/>
					<path class="st18" d="M492.7,1301.8c-3.9,11-7.5,21.3-10.7,30.5c28.9,18.2,59.3,33.7,90.7,46.6l11.9-28.8&#10;&#9;&#9;&#9;&#9;&#9;&#9;c-6.8-2.8-13.6-5.8-20.3-8.9C539.6,1329.8,515.7,1316.6,492.7,1301.8z" style="fill: rgb(235, 253, 255);"/>
					<path class="st18" d="M1009.4,1429.2c-4.5,2.2-9,4.3-13.5,6.4l0.9,33.8c9.6-4,19.1-8.3,28.5-12.9&#10;&#9;&#9;&#9;&#9;&#9;&#9;C1043.5,1447.4,1027.6,1420.2,1009.4,1429.2z" style="fill: rgb(235, 253, 255);"/>
					<path class="st18" d="M666.7,1458.3c0,10.9-0.1,21.8-0.3,32c72.5,16,147,20.8,222.4,9.2c26.4-4.1,52.4-10.4,77.6-18.8&#10;&#9;&#9;&#9;&#9;&#9;&#9;c-1.2-10.4-2.2-21.3-3-32.1C868.2,1482.3,765.2,1480.7,666.7,1458.3z" style="fill: rgb(235, 253, 255);"/>
				</g>
			</g>
			<linearGradient id="SVGID_6_" gradientUnits="userSpaceOnUse" x1="771.1423" y1="1435.4851" x2="500.4056" y2="1435.4851">
				<stop offset="0" style="stop-color:#FDB39A"/>
				<stop offset="1" style="stop-color:#E99274"/>
			</linearGradient>
			<path class="st19" d="M780.2,1395.7c0,0-81.5-15.9-179.8-28.4c-62.3-7.9-134.5,13.9-134.5,13.9l-13.4,46.9&#10;&#9;&#9;&#9;&#9;c-4.7,16.4,7.7,32.8,24.7,32.8l302.9,1.1c23,48.8,109.7,43.3,109.7,43.3l45.2-66c0,0-55.4-52-77.5-55.1&#10;&#9;&#9;&#9;&#9;S780.2,1395.7,780.2,1395.7z" style="fill: url('#SVGID_6_');"/>
			<linearGradient id="SVGID_7_" gradientUnits="userSpaceOnUse" x1="595.3437" y1="1408.475" x2="618.8387" y2="1571.65">
				<stop offset="0" style="stop-color:#BC3756"/>
				<stop offset="1" style="stop-color:#B72440"/>
			</linearGradient>
			<path class="st20" d="M674.6,1410.6h-92.7c-9,0-16.2,7.3-16.2,16.2v5.8c-12.7,0.8-25,4.2-34.1,14.2c-11.5,12.6-15.9,30.9-16,47.6&#10;&#9;&#9;&#9;&#9;c-0.1,17.4,6.3,35,20.7,45.5c8.2,6,19.2,10.4,29.7,10.3c1.4,7.6,8,13.3,15.9,13.3h92.7c9,0,16.2-7.3,16.2-16.2v-120.4&#10;&#9;&#9;&#9;&#9;C690.8,1417.8,683.5,1410.6,674.6,1410.6z M565.7,1519.5c-4.4,0.8-12.3-4.5-14.6-7.5c-5.1-6.6-5.3-15.9-4.4-23.8&#10;&#9;&#9;&#9;&#9;c0.8-6.9,2.5-15.4,7.5-20.6c3-3.1,7.2-4.2,11.5-4.5V1519.5z" style="fill: url('#SVGID_7_');"/>
			<linearGradient id="SVGID_8_" gradientUnits="userSpaceOnUse" x1="516.3676" y1="1386.6404" x2="435.6158" y2="1467.3921">
				<stop offset="0" style="stop-color:#BFE8F7"/>
				<stop offset="1" style="stop-color:#93C6E5"/>
			</linearGradient>
			<path class="st21" d="M465.9,1381.2l-13.4,46.9c-4.7,16.4,7.7,32.8,24.7,32.8l20.7,0.1c15.4-42,38.1-84,82.7-95.2&#10;&#9;&#9;&#9;&#9;C523.8,1363.7,465.9,1381.2,465.9,1381.2z" style="fill: url('#SVGID_8_');"/>
			<linearGradient id="SVGID_9_" gradientUnits="userSpaceOnUse" x1="1157.7849" y1="1402.3965" x2="1232.6367" y2="1537.855">
				<stop offset="0" style="stop-color:#FFFFFF"/>
				<stop offset="1" style="stop-color:#EDE8E9"/>
			</linearGradient>
			<path class="st22" d="M1397.3,1181.3H973.9c-16.5,0-30.7,11.7-33.8,27.9l-68.6,351.5H1348l69.3-355&#10;&#9;&#9;&#9;&#9;C1419.8,1193,1410.2,1181.3,1397.3,1181.3z" style="fill: url('#SVGID_9_');"/>
			<linearGradient id="SVGID_10_" gradientUnits="userSpaceOnUse" x1="800.8715" y1="869.4948" x2="800.8715" y2="717.4388">
				<stop offset="0" style="stop-color:#374891"/>
				<stop offset="1" style="stop-color:#223A77"/>
			</linearGradient>
			<path class="st23" d="M1036.3,1031.4c14.7-53-7.4-106.1-24.9-159.6c-1.2-18.4-2.4-36.7-4.2-55c-4.9-51-12.7-107.1-56.1-140.5&#10;&#9;&#9;&#9;&#9;c-42.5-32.6-101.6-35.2-153-32.2c-0.6,0-1.2,0.1-1.8,0.3c-1.4,0.1-2.8,0.3-4.2,0.5c-23,4.7-45.6,19.5-63.5,34.1&#10;&#9;&#9;&#9;&#9;c-41.6,33.8-63.5,81.1-76.7,132c-5.1,19.6-9.4,39.5-14.8,59c-14.1,28.8-42.6,50.2-62,75.2c-18.2,23.3-31.2,56.6-18.5,84.6&#10;&#9;&#9;&#9;&#9;c-0.1,0.4-0.2,0.7-0.3,1.1c-5.4,24-3.3,49.9,6,72.7c10.3,25.6,28.8,46.9,54.5,57.9c25.7,11,54.4,10.4,79.6-1.6&#10;&#9;&#9;&#9;&#9;c2.4-1.1,3.7-2.9,4.2-4.8c0.3-0.7,0.4-1.4,0.3-2.2c-1-7.2-6.3-11.6-12.4-14.3c-19.5-32.9-18.9-73.4-16.3-111.1&#10;&#9;&#9;&#9;&#9;c5.5-25.2,12.7-50.1,19.1-75.1c5.2-20.4,8.6-41.5,13.1-62.2c9.6-12,19.3-23.9,28.4-36.3c13.1-17.7,25.5-35.8,37.2-54.4&#10;&#9;&#9;&#9;&#9;c8.4-13.2,15.6-28.1,24.9-41.1c2.1-2.4,4.2-4.9,6.2-7.4c7.4-9.4,21.5-9.6,29.1-0.3c5.8,7.1,12.2,13.6,19,19.4&#10;&#9;&#9;&#9;&#9;c26.3,22.8,55.1,41,74.4,70.8c6.4,10,11.9,20.6,16.4,31.5c5.5,36,7.9,72.5,2.2,108.6c-3.8,23.7-11,46.7-22.4,67.9&#10;&#9;&#9;&#9;&#9;c-7.9,14.7-16.6,29.4-18.8,45.5c-3.7,2.9-7.6,5.5-11.8,7.8c-2.6,1.2-5.3,2.1-8.1,2.7c-0.8,0.2-1.4,0.6-1.9,1&#10;&#9;&#9;&#9;&#9;c-3.5,1.6-5.8,5.7-5.4,9.4c-0.3,0.9-0.2,1.9,0.6,3c4.7,6.5,11.1,9.2,18,10.1c20.6,9.4,42.4,15.8,65,18.8&#10;&#9;&#9;&#9;&#9;c23.9,3.2,53.3,5.4,73.2-10.8c19.1-15.5,22.3-42.2,18.1-65.1C1046,1057.6,1040.8,1044.6,1036.3,1031.4z M592.7,960.9&#10;&#9;&#9;&#9;&#9;c-12.4,17.6-24.9,35.7-32.3,56c-6.8-29.6,14.5-61,34.3-82.4c11.3-12.2,23.5-24.2,33.8-37.3C619.7,920.3,607,940.6,592.7,960.9z&#10;&#9;&#9;&#9;&#9; M677.7,1135.1c-3.4-1.1-6.7-2.4-9.3-5.2c-0.8-0.9-1.5-1.9-2.2-2.9c-2.9-11.7-3-28.5-2.2-43.2&#10;&#9;&#9;&#9;&#9;C665.8,1101.7,669.8,1119,677.7,1135.1z M764.6,792.9c-12.7,20.3-26.3,40-40.5,59.3c-5,6.7-10.2,13.3-15.4,19.8&#10;&#9;&#9;&#9;&#9;c1.4-5.3,3-10.5,4.8-15.7c10.8-31.7,33.8-52.6,57.9-74.4C769.1,785.6,766.9,789.3,764.6,792.9z M945.1,1026.6&#10;&#9;&#9;&#9;&#9;c-7,21.6-18.3,43.1-34.6,59.3c4.9-16.5,16.1-31.7,22.9-47.1c9.2-20.7,14.8-42.7,17.6-65.1c2.4-19.1,2.6-38.3,1.5-57.4&#10;&#9;&#9;&#9;&#9;C959,953.1,956.4,991.6,945.1,1026.6z M1031.3,1015.3c-2.5-8.6-4.7-17.2-6.5-26c-6-28.2-9-56.9-11.2-85.6&#10;&#9;&#9;&#9;&#9;c1.1,3.2,2.2,6.4,3.2,9.6C1027.4,945.7,1036,981.4,1031.3,1015.3z" style="fill: url('#SVGID_10_');"/>
			<g>
				<g>
					<linearGradient id="SVGID_11_" gradientUnits="userSpaceOnUse" x1="1476.2811" y1="1109.8832" x2="1488.8097" y2="1196.8955">
						<stop offset="0" style="stop-color:#374891"/>
						<stop offset="1" style="stop-color:#223A77"/>
					</linearGradient>
					<path class="st24" d="M1527.3,1082.2c-3.3-14.4-9.3-28.1-17.5-40.3c-6.1-9.2-16.7-25.6-29.1-26.6&#10;&#9;&#9;&#9;&#9;&#9;&#9;c-11.7-0.9-16.5,12.6-14.3,22.2c1.7,7.3,6.7,13.4,8.6,20.6c1.9,7.2,0.3,14.4-2.4,21.2c-4.9,12.3-13.2,23.1-17.3,35.7&#10;&#9;&#9;&#9;&#9;&#9;&#9;c-4,12.6-1.6,23.2,3.9,34.9c3.1,6.6,6.8,13.6,5.7,21.1c-1.5,10.5-10.2,18.4-16.8,25.9c-8.8,10-16.9,23.1-11.4,36.7&#10;&#9;&#9;&#9;&#9;&#9;&#9;c3.1,7.6,9.5,13.1,13.6,20c4.9,8.2,5.1,17.8,3.3,26.9c-3.8,19.3-16.3,36.2-16.9,56.2c-0.8,28.8,21.8,54.8,50,59.2&#10;&#9;&#9;&#9;&#9;&#9;&#9;c3,0.5,4.2-2.5,3.3-4.7c0-0.5,0-1.1-0.2-1.6c-2.1-5.8,7.7-15.9,10.8-20c2.9-3.7,5.9-6.3,9-9.8c3.1-2.1,5.9-5.2,8.1-7.5&#10;&#9;&#9;&#9;&#9;&#9;&#9;c10.5-10.7,9.8-23.7,8.2-37.6c-0.9-7.8-1.5-15.4,1.3-22.9c2.7-7.1,7.6-13.2,12.5-18.9c8.8-10.2,19.3-19.8,23.9-32.8&#10;&#9;&#9;&#9;&#9;&#9;&#9;c9.5-26.9-15.1-45.8-26.1-67.3C1523.5,1145.2,1534.1,1111.7,1527.3,1082.2z" style="fill: url('#SVGID_11_');"/>
					<path class="st0" d="M1493.9,1083.6c12.9,39.3,2.5,80.5,2.8,120.7c0.2,21.8,2.7,43.5,1.6,65.3c-1.2,23.5-8.8,45.4-13.9,68.1&#10;&#9;&#9;&#9;&#9;&#9;&#9;c-4.6,20.6-6.4,42.1,1.3,62.2c1,2.6,4.8,0.6,3.8-1.9c-16-41.8,10.6-85,13-126.9c1.3-21.8-1.3-43.5-1.5-65.3&#10;&#9;&#9;&#9;&#9;&#9;&#9;c-0.2-19.9,2-39.6,3.1-59.4c1.2-21.5,0.7-43.1-6-63.7C1497.2,1080.1,1493,1080.9,1493.9,1083.6z" style="fill: rgb(255, 255, 255);"/>
				</g>
				<g>
					<linearGradient id="SVGID_12_" gradientUnits="userSpaceOnUse" x1="1636.8719" y1="1164.5029" x2="1578.6206" y2="1294.5679">
						<stop offset="0" style="stop-color:#BFE8F7"/>
						<stop offset="1" style="stop-color:#93C6E5"/>
					</linearGradient>
					<path class="st25" d="M1740.3,1051.8c-15-4.6-31.8-3-46.1,3.1c-35.3,15.1-52.7,52.8-74.2,82.1c-12.4,16.9-26.6,31.1-45.9,39.7&#10;&#9;&#9;&#9;&#9;&#9;&#9;c-15.6,6.9-29.1,13.8-37.6,29.3c-9.5,17.2-11.2,37.2-17.6,55.5c-3.3,9.4-7.8,17.9-14.7,25.2c-7.2,7.7-16,13.8-23.4,21.2&#10;&#9;&#9;&#9;&#9;&#9;&#9;c-15.4,15.3-19.5,33.9-15.1,54.9c4.7,22.2,18,46,11.1,68.6c-2.9,1-4,4.6-2.8,6.9c0,0,0,0,0,0.1c-2.7,5.2,5.8,8.7,8.4,3.5&#10;&#9;&#9;&#9;&#9;&#9;&#9;c0.3-0.5,0.5-1.1,0.8-1.7c31.6-0.9,61.8-17.7,78.2-45.1c9.5-16,12-35.2,21.7-51c10.7-17.6,29-18.1,45.9-26.3&#10;&#9;&#9;&#9;&#9;&#9;&#9;c14.6-7.1,21.7-19.9,24.1-35.6c2.6-17.6-0.3-38.7,12.1-53.2c10.9-12.7,28.3-17.4,40.9-28.1c14.3-12.1,17.6-29.1,17.7-47.1&#10;&#9;&#9;&#9;&#9;&#9;&#9;c0.1-17.6-1.9-39.5,12.3-52.8c9.3-8.7,32.1-1.7,33.3-18.8C1770.2,1067.1,1752.7,1055.6,1740.3,1051.8z" style="fill: url('#SVGID_12_');"/>
					<path class="st0" d="M1688.1,1113.8c-48.4,19.9-75.4,67.2-96.6,112.4c-13,27.6-25,56-42.8,80.9c-15.7,22-35.6,41.2-47.2,65.8&#10;&#9;&#9;&#9;&#9;&#9;&#9;c-6.7,14.2-8.5,29.9-14.7,44.2c-6,14.1-21.7,29.1-37.7,19.8c-5.1-2.9-8.6,5.5-3.5,8.4c21,12.1,42.7-7.3,50.3-26.1&#10;&#9;&#9;&#9;&#9;&#9;&#9;c5.4-13.5,7.4-28.1,13.4-41.4c6.4-14.1,16-26.4,25.6-38.4c18.5-23,34.6-46.2,47.7-72.8c13.4-27.3,24.7-55.9,40.9-81.7&#10;&#9;&#9;&#9;&#9;&#9;&#9;c16.7-26.6,38.5-50.6,68.1-62.7C1697.1,1120,1693.5,1111.5,1688.1,1113.8z" style="fill: rgb(255, 255, 255);"/>
				</g>
				<g>
					<linearGradient id="SVGID_13_" gradientUnits="userSpaceOnUse" x1="1416.5146" y1="1171.7731" x2="1438.6503" y2="1325.5071">
						<stop offset="0" style="stop-color:#F48494"/>
						<stop offset="1" style="stop-color:#EF627E"/>
					</linearGradient>
					<path class="st26" d="M1490.2,1321.2c5.4-13.1,12.6-26.2,12.9-40.7c0.5-30-30.4-40.6-48.5-58.4c-23.3-22.9-23.9-59.9-40.6-87&#10;&#9;&#9;&#9;&#9;&#9;&#9;c-8.1-13.2-18.7-24.9-31-34.3c-9.2-7.1-25.3-19.9-37.9-16.8c-12,3-12.3,18.1-6.8,26.9c4.2,6.7,11.1,11.1,15.5,17.7&#10;&#9;&#9;&#9;&#9;&#9;&#9;c4.3,6.5,5.2,14.3,4.7,21.9c-0.8,13.9-5.5,27.4-5.3,41.4c0.2,13.9,6.2,23.7,15.6,33.5c5.3,5.5,11.3,11.2,12.8,19.1&#10;&#9;&#9;&#9;&#9;&#9;&#9;c2.1,10.9-4,21.8-8.1,31.5c-5.5,12.9-9.2,28.7,0.9,40.4c5.6,6.5,13.8,9.9,20.3,15.4c7.6,6.6,11,16,12.3,25.8&#10;&#9;&#9;&#9;&#9;&#9;&#9;c2.7,20.5-4.2,41.5,2,61.7c8.9,29,40.1,47.4,69.7,42.3c3.1-0.5,3.3-3.9,1.7-5.8c-0.1-0.5-0.4-1-0.8-1.5&#10;&#9;&#9;&#9;&#9;&#9;&#9;c-4.1-5.1,2.3-18.4,4.1-23.5c1.6-4.6,3.7-8.3,5.7-12.8c2.3-3.1,4.1-7.2,5.5-10.2c6.9-14.2,1.9-27-4.5-40.3&#10;&#9;&#9;&#9;&#9;&#9;&#9;c-3.5-7.4-6.7-14.9-6.4-23.3C1484.3,1336.3,1487.2,1328.5,1490.2,1321.2z" style="fill: url('#SVGID_13_');"/>
					<path class="st0" d="M1452.4,1331.9c-6-22.2-15.8-43-23.4-64.6c-6.9-19.7-11.2-40.2-16.7-60.3c-6-21.8-13.7-43.2-27.3-61.5&#10;&#9;&#9;&#9;&#9;&#9;&#9;c-1.7-2.3-5.6-0.1-3.9,2.3c26,34.8,29.4,79.5,43.2,119.5c7.5,21.7,17.3,42.5,23.5,64.6c6.7,23.8,6.4,48.2,8.9,72.6&#10;&#9;&#9;&#9;&#9;&#9;&#9;c2.3,22.1,7.7,44.1,22.1,61.6c1.8,2.2,5-1,3.2-3.2C1452,1426.5,1464,1374.5,1452.4,1331.9z" style="fill: rgb(255, 255, 255);"/>
				</g>
				<path class="st0" d="M1545.2,1425h-62.8h-62.8c-9.5,0-16.7,7.6-15.1,16l21.3,111.4c1.3,6.6,7.6,11.4,15.1,11.4h41.4h41.4&#10;&#9;&#9;&#9;&#9;&#9;c7.4,0,13.8-4.8,15.1-11.4l21.3-111.4C1561.9,1432.6,1554.7,1425,1545.2,1425z" style="fill: rgb(255, 255, 255);"/>
			</g>
			<g>
				
					<path d="M 1208.49995 1370.900024 A 42.799999 30.299999 0 0 1 1165.699951 1401.200024 A 42.799999 30.299999 0 0 1 1122.899952 1370.900024 A 42.799999 30.299999 0 0 1 1165.699951 1340.600025 A 42.799999 30.299999 0 0 1 1208.49995 1370.900024 Z" transform="matrix(0.761 -0.6488 0.6488 0.761 -610.7895 1083.9878)" class="st4" style="fill: rgb(237, 232, 233);"/>
				<path class="st27" d="M1190.4,1337.3c4.6,4.9,7,11.8,6.1,20.2c-2.1,19.4-20.8,38.9-41.7,43.5c-8,1.8-15.2,1.1-20.8-1.4&#10;&#9;&#9;&#9;&#9;&#9;c6.1,6.4,16.1,9.1,28,6.5c20.9-4.7,39.6-24.1,41.7-43.5C1204.9,1350.5,1199.6,1341.4,1190.4,1337.3z" style="fill: rgb(224, 222, 222);"/>
			</g>
			<g>
				<path class="st28" d="M945.1,831c-7.5-1.7-31.2-6.2-57.2-2.9c-31.5,3.9-52.9,9.3-65.3,8.1c-12.4,1.2-33.7-4.2-65.3-8.1&#10;&#9;&#9;&#9;&#9;&#9;c-26-3.2-49.8,1.3-57.2,2.9c-1.4,0.3-2.4,1.6-2.4,3v10.2c0,1.2,0.7,2.3,1.8,2.8c9.3,4,10.1,26.4,12.6,42.6&#10;&#9;&#9;&#9;&#9;&#9;c2.6,17.2,23.9,20.4,46.1,20.6c14.4,0.1,25.6-2.2,33.7-5.9c16.4-7.6,19.2-47.2,20.8-50.8c1.6-3.6,10-2.8,10-2.8s8.4-0.8,10,2.8&#10;&#9;&#9;&#9;&#9;&#9;c1.6,3.6,4.4,43.2,20.8,50.8c8,3.7,19.2,6,33.7,5.9c22.2-0.1,43.5-3.4,46.1-20.6c2.4-16.2,3.3-38.5,12.6-42.6&#10;&#9;&#9;&#9;&#9;&#9;c1.1-0.5,1.8-1.6,1.8-2.8V834C947.5,832.5,946.5,831.3,945.1,831z M801.6,870.4c-5,20.8-10.2,24.7-20.2,29.5s-23.7,5.4-42.9,2.6&#10;&#9;&#9;&#9;&#9;&#9;c-19.2-2.8-21.4-14-21.9-43.1c-0.6-26.9,23.8-26,27.6-25.7c0.6,0,1.1,0.1,1.7,0.1c4.4,0.3,20.7,1.5,38.9,4.6&#10;&#9;&#9;&#9;&#9;&#9;C804.5,841.8,806.6,849.7,801.6,870.4z M906.6,902.6c-19.2,2.8-32.9,2.2-42.9-2.6c-10-4.8-15.2-8.8-20.2-29.5&#10;&#9;&#9;&#9;&#9;&#9;c-5-20.8-2.8-28.7,16.8-32c18.3-3.1,34.5-4.3,38.9-4.6c0.6,0,1.1-0.1,1.7-0.1c3.8-0.3,28.2-1.2,27.6,25.7&#10;&#9;&#9;&#9;&#9;&#9;C927.9,888.6,925.7,899.8,906.6,902.6z" style="fill: rgb(232, 77, 126);"/>
			</g>
		</g>
	</g>
</g>
</svg>